PathFileType	4	(X/Y/Z)	Walk5.trc
DataRate	CameraRate	NumFrames	NumMarkers	Units	OrigDataRate	OrigDataStartFrame	OrigNumFrames
200.000000	200.000000	9	57	mm	200.000000	502	539
Frame#	Times		RBHD		C7		RASI		RACR1		RUA1		RFA1		LFA1		RTH3		RTH2		RWRU		RCAR		RElbow		RBack		LTH2		RTH1		LElbowM		RTB3		RMT1		RTH4		RMT5		RLFC		RTB1		RTB4		LTH4		RTB2		LACR1		LElbow		LWRU		LTH3		CLAV		LTB1		LPSI		T10		RPSI		RWRR		LTH1		LBHD		LLFC		LTB3		LTB4		RToe		LCAL		RFHD		LTB2		LMMAL		LASI		LWRR		LLMAL		RElbowM		LMT1		LToe		RLMAL		RMMAL		LMT5		LUA1		LCAR		RCAL
			X1	Y1	Z1	X2	Y2	Z2	X3	Y3	Z3	X4	Y4	Z4	X5	Y5	Z5	X6	Y6	Z6	X7	Y7	Z7	X8	Y8	Z8	X9	Y9	Z9	X10	Y10	Z10	X11	Y11	Z11	X12	Y12	Z12	X13	Y13	Z13	X14	Y14	Z14	X15	Y15	Z15	X16	Y16	Z16	X17	Y17	Z17	X18	Y18	Z18	X19	Y19	Z19	X20	Y20	Z20	X21	Y21	Z21	X22	Y22	Z22	X23	Y23	Z23	X24	Y24	Z24	X25	Y25	Z25	X26	Y26	Z26	X27	Y27	Z27	X28	Y28	Z28	X29	Y29	Z29	X30	Y30	Z30	X31	Y31	Z31	X32	Y32	Z32	X33	Y33	Z33	X34	Y34	Z34	X35	Y35	Z35	X36	Y36	Z36	X37	Y37	Z37	X38	Y38	Z38	X39	Y39	Z39	X40	Y40	Z40	X41	Y41	Z41	X42	Y42	Z42	X43	Y43	Z43	X44	Y44	Z44	X45	Y45	Z45	X46	Y46	Z46	X47	Y47	Z47	X48	Y48	Z48	X49	Y49	Z49	X50	Y50	Z50	X51	Y51	Z51	X52	Y52	Z52	X53	Y53	Z53	X54	Y54	Z54	X55	Y55	Z55	X56	Y56	Z56	X57	Y57	Z57

502	2.51	1078.5	1588.1	500.8	1035.6	1453.4	417.8	1129.3	960.07	528.85	1106.3	1399.1	555.22	1088.2	1207.3	635.39	1139.8	948.54	681.98	1057.1	1011.7	83.995	1075.9	561.86	540.44	1142.5	661.69	531.45	1166.9	821.33	670.79	1225	784.74	676.34	1061.3	1076.9	667.2	969.13	1351	510.12	1239.4	703.64	214.75	1071.9	749.05	570.8	942.79	1139.9	193.06	1064.5	179.02	426.55	1146.3	38.05	381.62	1074.1	652.78	557.09	1116.8	30.248	469.8	1074.4	458.8	523.47	1099.6	366.04	437.55	1085.2	274.4	434.08	1173.5	672.15	187.77	1071.8	269.69	505.79	1064.3	1454.3	237.34	963.82	1143.8	114.04	1045.8	893.01	84.277	1212.6	591.39	198.32	1168.8	1376.1	390.04	1249.9	384.39	273.46	957.01	972.1	316.96	943.75	1143.7	379.05	950.92	976.9	421.15	1231.8	842.91	632.79	1133	761.35	187.28	1057.7	1597.9	362.01	1239.5	486.15	214.45	1136	237.93	283.72	1191.4	312.35	278.97	1198.5	29.313	403.17	953.66	146.18	307.05	1224.1	1618.1	456.92	1165	327.72	213.52	1053.4	166.31	342.92	1131.9	961.47	225.94	1114.4	910.95	124.59	1014	167.23	258.58	1037.8	1047.8	575.45	1135.6	64.047	325.3	1175.3	61.616	303.48	994.76	79.862	461.14	1020.9	96.622	375.74	1111.8	70.716	246.48	1006.4	1267.8	133.91	1122.4	858.19	79.079	943.35	34.145	418.75
503	2.515	1083.9	1588.2	500.46	1041.3	1453.3	418.19	1134.5	959.52	529.56	1112	1399.4	555.49	1094.4	1207.8	636.43	1149.7	950.14	683.07	1059.8	1010.9	84.322	1078.4	561.97	540.93	1145.7	661.14	531.75	1179.2	823.58	671.14	1238	788.14	676.62	1069.1	1077.2	668.67	974.97	1351.1	510.37	1246.3	704.93	215.21	1076.4	749.32	571.66	946.89	1139.7	193.95	1065.1	179.01	426.56	1146.3	38.342	381.84	1077.5	653.05	558.33	1116.8	30.169	469.77	1076.1	458.7	523.75	1100.6	365.87	437.58	1085.9	274.32	434.19	1180.7	672.76	188.02	1072.6	269.47	506.08	1069.8	1453.9	237.5	967.49	1143.4	115.1	1047.7	892.37	84.692	1220.4	592.42	198.75	1174.6	1376	390.3	1260.9	385.85	274.1	962.48	972.04	317.44	949.48	1143.6	379.33	956.42	976.94	421.45	1243.6	846.68	633.58	1139.5	761.77	187.39	1063.1	1597.6	361.8	1248.5	487.34	215.08	1151.2	236.33	284.77	1204.3	312.13	279.91	1198.5	28.573	402.58	971.12	139.73	309.83	1221.7	1619.8	460.6	1177.5	326.68	214.43	1070.4	162.42	344.26	1137.7	961.21	226.58	1115.9	909.95	124.55	1030.8	162.34	260.07	1045.6	1047.8	577.17	1155.6	62.758	326.25	1195.6	61.069	304.28	994.93	80.019	461.28	1021.5	96.819	375.45	1131.3	68.574	247.6	1010.5	1267.5	134.75	1124.1	857.19	78.784	943.36	34.041	417.9
504	2.52	1089.3	1588.1	500.4	1047	1453.2	418.42	1140.5	959.32	529.97	1117.9	1399.5	555.59	1100.8	1208.5	637.36	1159.8	951.8	684	1062.2	1010.1	84.679	1080.9	562.12	541.54	1149.1	660.7	531.98	1191.4	825.78	671.74	1251.1	791.43	676.83	1076.7	1077.5	670.04	980.77	1351.2	510.87	1253.1	706.12	215.6	1080.6	749.17	572.26	951.98	1139.1	195.77	1065.6	178.98	426.6	1146.4	38.727	382.14	1081	653.57	559.65	1116.3	29.087	469.1	1077.7	458.56	524.09	1101.9	365.66	437.69	1086.7	274.14	434.31	1187.8	673.42	188.38	1073.4	269.2	506.32	1075.1	1453.3	237.73	971.37	1143.2	116.06	1049.4	891.64	85.191	1228.2	593.38	199.13	1180.4	1375.8	390.41	1271.7	387.21	274.75	968.39	971.93	317.64	955.25	1143.5	379.86	961.74	976.83	421.79	1255.4	850.39	634.45	1145.9	762.07	187.72	1068.7	1597.2	361.54	1257.9	488.58	215.49	1166.4	234.72	285.79	1216.7	311.71	281.04	1198.6	29.055	403.44	989.31	133.04	310.48	1219.7	1621.6	464.27	1189.9	325.58	215.42	1087.7	158.45	345.59	1143.6	960.9	227.18	1117.4	908.89	124.65	1048.2	157.42	261.45	1053.3	1047.7	578.79	1176	61.27	327.12	1216	60.523	305.28	995.1	80.104	461.33	1022.1	97.493	375.4	1151.1	66.329	248.62	1014.7	1267.1	135.46	1125.9	856.1	78.563	943.27	34.049	417.57
505	2.525	1094.9	1588.1	500.15	1052.8	1452.8	418.54	1146.8	958.84	529.99	1123.7	1399.6	555.87	1107.2	1208.9	638.18	1169.5	953.29	685.05	1065	1009.3	84.953	1083.9	562.24	543.51	1152.7	660.06	532.1	1203.5	828.18	672.54	1263.8	794.85	677.28	1084.4	1078	671.36	986.54	1351	511.21	1259.7	707.13	216.3	1084.9	748.85	572.63	956.2	1139	197.08	1066.1	178.85	426.72	1146.5	38.961	382.41	1084.7	654.01	560.67	1115.9	27.817	467.96	1079.5	458.36	524.37	1103.2	365.4	437.87	1087.6	273.86	434.4	1194.8	674.07	188.56	1074.4	269.04	506.47	1080.6	1452.6	237.83	974.8	1142.7	117.22	1051.3	890.95	85.581	1235.9	594.25	199.66	1186.1	1375.5	390.62	1282.4	388.51	275.39	974.02	971.63	317.87	960.94	1143.3	380.04	967.3	976.44	422.19	1267.2	854.28	635.02	1152.4	762.24	187.92	1074.1	1596.7	361.36	1266.3	489.41	216.05	1181.4	233.04	286.79	1229.4	311.54	281.87	1199.5	29.836	404.1	1007.4	125.77	311.9	1218.3	1623.3	467.69	1202.3	324.47	216.19	1105	154.42	347.04	1149.5	960.55	227.74	1119.1	907.76	124.85	1065.4	152.23	262.99	1061.3	1047.5	580.3	1196.3	59.625	328.5	1236.4	60.209	305.34	995.35	80.128	461.37	1023.1	97.335	376.8	1170.9	64.335	249.45	1019.1	1266.6	136.08	1127.9	854.82	78.129	943.29	34.182	417.61
506	2.53	1100.5	1588.1	499.81	1058.5	1452.7	418.75	1153.2	958.43	530.08	1129.4	1399.6	555.96	1113.6	1209.2	639.13	1179.4	954.95	686.05	1067.7	1008.4	85.36	1086.6	562.18	544.63	1156.2	659.61	532.29	1215.7	831.24	674.4	1276.6	798.29	677.41	1092	1078.5	672.63	992.44	1350.6	511.66	1266.3	707.93	217.01	1089.3	748.69	572.84	959.68	1138.9	198.04	1066.5	178.59	427	1146.6	38.992	382.53	1088.4	654.21	561.52	1115.6	26.978	466.86	1081.2	458.15	524.66	1104.3	365.08	438.07	1088.6	273.72	434.48	1201.8	674.42	188.91	1075.4	268.35	507.02	1086	1452	237.92	978.82	1142.4	118.51	1053.6	890.13	86.197	1243.2	594.85	200.16	1191.7	1375.2	390.84	1292.7	389.64	276.1	979.41	971.49	318.09	966.43	1143.2	380.23	973	976.16	422.63	1278.9	858.05	635.68	1158.7	762.44	188.17	1079.8	1595.7	361.39	1274.1	490.08	216.78	1196.5	231.31	287.81	1242.2	311.2	282.59	1199.8	29.684	404.5	1026.1	116.86	315.54	1218.2	1624.8	470.61	1214.4	323.38	217.15	1122.6	150.39	348.41	1155.3	960.08	228.33	1120.9	906.55	125.13	1082.9	147.15	264.45	1069.5	1047.3	581.62	1217	58.074	329.38	1256.9	59.836	305.61	995.53	80.073	461.29	1023.7	96.476	377.34	1190.7	62.602	250.11	1023.5	1266.1	136.76	1129.7	853.56	77.847	943.32	34.347	417.79
507	2.535	1106.2	1588	499.69	1064.2	1452.2	418.81	1159.4	957.95	530.21	1135.3	1399.6	556.17	1120	1209.4	639.89	1189.2	956.53	687.01	1070.5	1007.4	85.618	1089.6	561.87	545.03	1159.8	658.86	532.47	1227.7	833.84	675.9	1289.2	801.81	677.74	1099.7	1078.4	674.06	998.27	1350.3	512.18	1272.9	708.58	217.56	1093.7	748.51	572.93	963.67	1138.6	198.95	1067.1	178.47	427.04	1146.7	38.888	382.45	1092.1	653.98	562.05	1115.8	27.936	467.63	1083.3	457.86	524.81	1105.7	364.75	438.37	1089.7	273.54	434.64	1208.8	674.69	189.14	1076.3	268.51	506.88	1091.6	1451.3	238.1	982.95	1142	119.61	1056.1	889.01	88.229	1250.7	595.48	200.69	1197.6	1374.8	390.98	1303	390.74	276.59	985.23	971.2	318.23	972.28	1142.8	380.5	978.59	975.9	422.9	1290.5	861.8	636.35	1164.7	762.41	188.58	1085.5	1595.1	361.07	1281.6	490.48	217.56	1211.5	229.48	288.83	1255.2	310.95	283.18	1199.7	29.04	404.47	1045.1	110.77	316.99	1219.5	1626	472.85	1226.4	322.19	218.03	1140.7	146.65	349.47	1161.2	959.58	228.77	1123	905.25	125.42	1100.6	142.22	265.85	1077.8	1047	582.88	1237.2	56.916	329.82	1277.3	59.612	305.86	995.68	80.009	461.21	1024	95.953	377.44	1210.6	60.438	251.18	1028.1	1265.5	137.34	1131.1	852.22	77.574	943.36	34.459	417.91
508	2.54	1111.8	1587.7	499.4	1070	1451.9	419.01	1165.3	957.41	530.51	1140.9	1399.4	556.32	1126.5	1209.6	640.56	1198.8	958.08	688.1	1073.3	1006.3	85.947	1092.8	561.61	545.13	1163.4	658.19	532.47	1239.7	836.31	676.46	1301.9	805.29	677.84	1107.2	1078.5	675.44	1004	1349.9	512.52	1279.5	709.14	218.14	1098.3	748.36	573.06	968.12	1138.3	199.84	1067.7	178.26	427.14	1147.5	39.325	382.44	1095.7	653.49	562.06	1116.2	29.138	469.06	1085.1	457.59	525.17	1107.1	364.41	438.51	1090.5	273.28	434.87	1215.5	675.01	189.55	1077.2	268.43	506.87	1097.1	1450.6	238.33	986.7	1141.4	120.41	1058.6	887.44	89.93	1257.9	595.97	201.17	1203.5	1374.3	391.12	1313.2	391.78	277.18	991.11	970.95	318.86	978.07	1142.3	380.84	984.02	975.58	423.13	1301.8	865.71	637.02	1170.6	762.32	188.88	1090.9	1594.8	360.53	1289.3	490.96	218.15	1226.7	227.72	289.72	1267.9	310.57	283.84	1199.7	28.494	403.84	1064	104.97	317.63	1222.5	1626.8	474.29	1238.4	320.82	218.87	1158.7	142.83	350.56	1167	959.04	229.33	1125.5	903.85	125.66	1118.3	137.17	267.27	1086.2	1046.7	584.13	1257.8	56.379	330.09	1297.8	59.421	306.52	995.77	80.047	461.2	1024.1	95.97	377.25	1230.8	58.587	251.97	1032.7	1264.8	138.04	1132.7	850.89	77.415	943.38	34.633	417.94
509	2.545	1117.3	1587.2	499.18	1075.9	1451.3	419.17	1170.7	956.81	530.99	1146.8	1399.2	556.61	1132.9	1209.8	641.26	1208.6	959.61	688.99	1076	1005.3	86.419	1095.7	561.38	545.54	1167	657.57	532.63	1251.7	838.48	676.12	1314.2	808.76	678.13	1114.9	1078.7	676.83	1009.8	1349.7	512.72	1285.8	709.54	218.84	1102.7	747.82	573.25	972.82	1137.8	200.8	1068.3	178.09	427.2	1147.5	40.014	383.32	1099.3	652.95	561.79	1116.5	29.743	470.02	1087.1	457.32	525.41	1108.8	364.05	438.65	1091.7	272.94	434.97	1222.2	675.08	189.89	1078.4	268.14	506.89	1102.6	1449.8	238.47	990.71	1140.8	121.05	1060.9	885.95	90.865	1264.9	596.33	201.79	1209.3	1373.8	391.28	1323.2	392.74	277.58	996.76	970.34	319.01	983.63	1141.9	381.04	989.52	975.24	423.5	1313	869.44	637.8	1177	762.21	189.06	1096.3	1594.3	360.11	1296.4	491.19	218.94	1241.9	226.06	290.46	1280.2	310.02	284.63	1199.6	27.849	403.33	1082.9	98.737	318.38	1226.9	1627.1	474.93	1250.3	319.63	219.7	1176.7	138.89	351.8	1172.8	958.4	229.79	1128.4	902.35	125.8	1136.1	132	268.69	1094.4	1046.3	585.41	1278.6	55.88	330.59	1318.3	59.869	306.91	996.02	80.326	461.3	1024	96.345	376.87	1250.8	57.296	252.67	1037.3	1264.1	138.78	1134.1	849.35	77.245	943.42	34.793	417.91
510	2.55	1122.7	1586.8	499.02	1081.7	1450.8	419.58	1175.7	956.13	531.66	1152.7	1399	556.58	1139.1	1209.9	642.12	1218.1	961.09	689.94	1078.9	1004.1	86.66	1098.7	561.15	545.98	1170.7	656.77	532.75	1263.4	840.35	675.52	1326.6	812.34	678.28	1122.5	1078.7	678.27	1015.5	1349.3	513.06	1292	709.95	219.62	1107.2	747.45	573.75	977.58	1137.2	201.97	1069	177.89	427.24	1147.3	39.518	382.85	1103	652.59	561.85	1116.6	29.772	470.19	1089.1	457.03	525.67	1110.3	363.65	438.78	1093	272.67	434.97	1228.8	675.13	190.24	1079.6	267.84	507.02	1108.3	1449	238.57	994.75	1140.2	122.11	1062.9	884.74	91.75	1271.7	596.51	202.5	1215.2	1373.2	391.42	1332.9	393.59	277.93	1002.4	969.89	319.22	989.37	1141.5	381.26	995	974.75	423.62	1324.1	873.3	638.27	1183.4	762.09	189.15	1101.9	1593.4	360.06	1303.6	491.28	219.72	1256.9	224.35	291.28	1292.5	309.52	285.27	1199.4	27.262	402.64	1102.6	91.8	320.06	1232.5	1627.1	474.87	1261.8	318.33	220.53	1194.8	135.18	352.92	1178.6	957.82	230.33	1131.7	900.78	125.76	1154	126.97	270.06	1102.6	1045.9	586.72	1299.2	55.474	331.24	1338.5	60.51	307.53	996.32	80.579	461.4	1024	96.762	376.4	1270.9	55.99	253.41	1042.3	1263.3	139.43	1135.8	847.92	76.923	943.46	34.954	417.83
